<svg xmlns="http://www.w3.org/2000/svg" xmlns:xlink="http://www.w3.org/1999/xlink" width="800" height="217.1"><rect width="800" height="217.1" rx="0" ry="0" class="a"/><svg height="217.1" viewBox="0 0 80 21.71" width="800" xmlns="http://www.w3.org/2000/svg" xmlns:xlink="http://www.w3.org/1999/xlink"><style>.a{fill:#282d35}.e,.f{fill:#b9c0cb;font-weight:700}.f{fill:#e88388}.g{fill:#b9c0cb}.h{fill:#e88388}</style><g font-size="1.67" font-family="Monaco,Consolas,Menlo,'Bitstream Vera Sans Mono','Powerline Symbols',monospace"><defs><symbol id="a"><path fill="transparent" d="M0 0h80v11H0z"/></symbol><symbol id="b"><path fill="#6f7683" d="M0 0h1.102v2.171H0z"/></symbol></defs><path class="a" d="M0 0h80v21.71H0z"/><svg width="80"><svg><use xlink:href="#a"/><use xlink:href="#b" x="-.004" y="21.685"/><text y="3.841" class="e">code.cs:3:5:</text><text x="13.026" y="3.841" class="f">error:</text><text x="20.04" y="3.841" class="e">hello</text><text x="26.052" y="3.841" class="e">world:</text><text x="33.066" y="3.841" class="g">look</text><text x="38.076" y="3.841" class="g">at</text><text x="41.082" y="3.841" class="g">this</text><text x="46.092" y="3.841" class="g">beautiful</text><text x="56.112" y="3.841" class="g">error</text><text x="62.124" y="3.841" class="g">message!</text><text x="2.004" y="8.183" class="g">1</text><text x="4.008" y="8.183" class="g">│</text><text x="6.012" y="8.183" class="g">public</text><text x="13.026" y="8.183" class="g">static</text><text x="20.04" y="8.183" class="g">class</text><text x="26.052" y="8.183" class="g">Program</text><text x="2.004" y="10.354" class="g">2</text><text x="4.008" y="10.354" class="g">│</text><text x="6.012" y="10.354" class="g">{</text><text x="2.004" y="12.525" class="g">3</text><text x="4.008" y="12.525" class="g">│</text><text x="10.02" y="12.525" class="g">public</text><text x="17.034" y="12.525" class="f">Program</text><text x="24.048" y="12.525" class="g">()</text><text x="4.008" y="14.696" class="g">│</text><text x="10.02" y="14.696" class="h">~~~~~~</text><text x="17.034" y="14.696" class="f">^~~~~~~</text><text x="24.048" y="14.696" class="h">~~</text><text x="2.004" y="16.867" class="g">4</text><text x="4.008" y="16.867" class="g">│</text><text x="10.02" y="16.867" class="g">{</text><text x="12.024" y="16.867" class="g">}</text><text x="2.004" y="19.038" class="g">5</text><text x="4.008" y="19.038" class="g">│</text><text x="6.012" y="19.038" class="g">}</text></svg></svg></g></svg></svg>