<svg xmlns="http://www.w3.org/2000/svg" xmlns:xlink="http://www.w3.org/1999/xlink" width="800" height="108.55"><rect width="800" height="108.55" rx="0" ry="0" class="a"/><svg height="108.55" viewBox="0 0 80 10.855" width="800" xmlns="http://www.w3.org/2000/svg" xmlns:xlink="http://www.w3.org/1999/xlink"><style>.a{fill:#282d35}.e{fill:#a8cc8c;font-weight:700;text-decoration:underline}.f{fill:#b9c0cb}</style><g font-size="1.67" font-family="Monaco,Consolas,Menlo,'Bitstream Vera Sans Mono','Powerline Symbols',monospace"><defs><symbol id="a"><path fill="transparent" d="M0 0h80v6H0z"/></symbol><symbol id="b"><path fill="#6f7683" d="M0 0h1.102v2.171H0z"/></symbol></defs><path class="a" d="M0 0h80v10.855H0z"/><svg width="80"><svg><use xlink:href="#a"/><use xlink:href="#b" x="-.004" y="10.83"/><text x="34.068" y="3.841" class="e">Hello</text><text x="40.08" y="3.841" class="e">world</text><text x="5.01" y="8.183" class="f">•</text><text x="8.016" y="8.183" class="f">“Lorem</text><text x="15.03" y="8.183" class="f">ipsum</text><text x="21.042" y="8.183" class="f">dolor</text><text x="27.054" y="8.183" class="f">sit</text><text x="31.062" y="8.183" class="f">amet,</text><text x="37.074" y="8.183" class="f">consectetur</text><text x="49.098" y="8.183" class="f">adipiscing</text><text x="60.12" y="8.183" class="f">elit.</text><text x="66.132" y="8.183" class="f">Curabitur</text><text x="8.016" y="10.354" class="f">tempor</text><text x="15.03" y="10.354" class="f">ornare</text><text x="22.044" y="10.354" class="f">luctus.</text><text x="30.06" y="10.354" class="f">Etiam</text><text x="36.072" y="10.354" class="f">a</text><text x="38.076" y="10.354" class="f">vulputate</text><text x="48.096" y="10.354" class="f">tellus.</text><text x="56.112" y="10.354" class="f">Nullam</text><text x="63.126" y="10.354" class="f">ultrices</text><text x="72.144" y="10.354" class="f">ante</text></svg></svg></g></svg></svg>