<svg xmlns="http://www.w3.org/2000/svg" xmlns:xlink="http://www.w3.org/1999/xlink" width="800" height="65.13"><rect width="800" height="65.13" rx="0" ry="0" class="a"/><svg height="65.13" viewBox="0 0 80 6.513" width="800" xmlns="http://www.w3.org/2000/svg" xmlns:xlink="http://www.w3.org/1999/xlink"><style>.a{fill:#282d35}.e{font-weight:700}.e,.g{fill:#b9c0cb}</style><g font-size="1.67" font-family="Monaco,Consolas,Menlo,'Bitstream Vera Sans Mono','Powerline Symbols',monospace"><defs><symbol id="a"><path fill="transparent" d="M0 0h80v4H0z"/></symbol><symbol id="b"><path fill="#6f7683" d="M0 0h1.102v2.171H0z"/></symbol></defs><path class="a" d="M0 0h80v6.513H0z"/><svg width="80"><svg><use xlink:href="#a"/><use xlink:href="#b" x="-.004" y="6.488"/><text y="3.841" class="e">mcs:</text><text x="5.01" y="3.841" fill="#e88388" font-weight="700">error:</text><text x="12.024" y="3.841" class="e">CS5001:</text><text x="20.04" y="3.841" class="g">program</text><text x="28.056" y="3.841" class="g">‘</text><text x="29.058" y="3.841" class="e">Color.exe</text><text x="38.076" y="3.841" class="g">’</text><text x="40.08" y="3.841" class="g">does</text><text x="45.09" y="3.841" class="g">not</text><text x="49.098" y="3.841" class="g">contain</text><text x="57.114" y="3.841" class="g">a</text><text x="59.118" y="3.841" class="g">static</text><text x="66.132" y="3.841" class="g">‘</text><text x="67.134" y="3.841" class="e">Main</text><text x="71.142" y="3.841" class="g">’</text><text x="73.146" y="3.841" class="g">method</text><text y="6.012" class="g">suitable</text><text x="9.018" y="6.012" class="g">for</text><text x="13.026" y="6.012" class="g">an</text><text x="16.032" y="6.012" class="g">entry</text><text x="22.044" y="6.012" class="g">point.</text></svg></svg></g></svg></svg>