<svg xmlns="http://www.w3.org/2000/svg" xmlns:xlink="http://www.w3.org/1999/xlink" width="800" height="434.2"><rect width="800" height="434.2" rx="0" ry="0" class="a"/><svg height="434.2" viewBox="0 0 80 43.42" width="800" xmlns="http://www.w3.org/2000/svg" xmlns:xlink="http://www.w3.org/1999/xlink"><style>.a{fill:#282d35}.e{font-weight:700}.e,.f{fill:#b9c0cb}</style><g font-size="1.67" font-family="Monaco,Consolas,Menlo,'Bitstream Vera Sans Mono','Powerline Symbols',monospace"><defs><symbol id="a"><path fill="transparent" d="M0 0h80v21H0z"/></symbol><symbol id="b"><path fill="#6f7683" d="M0 0h1.102v2.171H0z"/></symbol></defs><path class="a" d="M0 0h80v43.42H0z"/><svg width="80"><svg><use xlink:href="#a"/><use xlink:href="#b" x="-.004" y="43.395"/><text y="3.841" class="e">Optimization</text><text x="13.026" y="3.841" class="e">options</text><text x="4.008" y="8.183" class="e">-O⟨n⟩</text><text x="8.016" y="10.354" class="f">Pick</text><text x="13.026" y="10.354" class="f">an</text><text x="16.032" y="10.354" class="f">optimization</text><text x="29.058" y="10.354" class="f">level.</text><text x="4.008" y="14.696" class="e">-Ofast</text><text x="8.016" y="16.867" class="f">Enable</text><text x="15.03" y="16.867" class="f">aggressive</text><text x="26.052" y="16.867" class="f">optimizations.</text><text y="21.209" class="e">Overall</text><text x="8.016" y="21.209" class="e">options</text><text x="4.008" y="25.551" class="e">--files</text><text x="12.024" y="25.551" class="e">⟨arg...⟩</text><text x="8.016" y="27.722" class="f">Consume</text><text x="16.032" y="27.722" class="f">files</text><text x="22.044" y="27.722" class="f">as</text><text x="25.05" y="27.722" class="f">input.</text><text x="4.008" y="32.064" class="e">-fsyntax-only</text><text x="17.034" y="32.064" class="f">,</text><text x="19.038" y="32.064" class="e">-fno-syntax-only</text><text x="8.016" y="34.235" class="f">Check</text><text x="14.028" y="34.235" class="f">the</text><text x="18.036" y="34.235" class="f">code</text><text x="23.046" y="34.235" class="f">for</text><text x="27.054" y="34.235" class="f">syntax</text><text x="34.068" y="34.235" class="f">errors</text><text x="41.082" y="34.235" class="f">only.</text><text x="4.008" y="38.577" class="e">-h</text><text x="6.012" y="38.577" class="f">,</text><text x="8.016" y="38.577" class="e">--help</text><text x="8.016" y="40.748" class="f">Print</text><text x="14.028" y="40.748" class="f">a</text><text x="16.032" y="40.748" class="f">description</text><text x="28.056" y="40.748" class="f">of</text><text x="31.062" y="40.748" class="f">the</text><text x="35.07" y="40.748" class="f">options</text><text x="43.086" y="40.748" class="f">understood.</text></svg></svg></g></svg></svg>