<svg xmlns="http://www.w3.org/2000/svg" xmlns:xlink="http://www.w3.org/1999/xlink" width="800" height="130.26"><rect width="800" height="130.26" rx="0" ry="0" class="a"/><svg height="130.26" viewBox="0 0 80 13.026" width="800" xmlns="http://www.w3.org/2000/svg" xmlns:xlink="http://www.w3.org/1999/xlink"><style>.a{fill:#282d35}.f{fill:#e88388;font-weight:700}.g{fill:#b9c0cb}</style><g font-size="1.67" font-family="Monaco,Consolas,Menlo,'Bitstream Vera Sans Mono','Powerline Symbols',monospace"><defs><symbol id="a"><path fill="transparent" d="M0 0h80v7H0z"/></symbol><symbol id="b"><path fill="#6f7683" d="M0 0h1.102v2.171H0z"/></symbol></defs><path class="a" d="M0 0h80v13.026H0z"/><svg width="80"><svg><use xlink:href="#a"/><use xlink:href="#b" x="-.004" y="13.001"/><text y="1.67" fill="#b9c0cb" font-weight="700">input.cs:1:5:</text><text x="14.028" y="1.67" class="f">error:</text><text x="21.042" y="1.67" class="g">Syntax</text><text x="28.056" y="1.67" class="g">error</text><text x="34.068" y="1.67" class="g">in</text><text x="37.074" y="1.67" class="g">expression</text><text x="48.096" y="1.67" class="g">at</text><text x="51.102" y="1.67" class="g">&apos;int&apos;;</text><text x="58.116" y="1.67" class="g">possibly</text><text x="67.134" y="1.67" class="g">missing</text><text y="3.841" class="g">semicolon</text><text x="2.004" y="8.183" class="g">1</text><text x="4.008" y="8.183" class="g">│</text><text x="6.012" y="8.183" class="g">int</text><text x="10.02" y="8.183" class="f">i</text><text x="11.022" y="8.183" class="g">nt</text><text x="14.028" y="8.183" class="g">x</text><text x="16.032" y="8.183" class="g">=</text><text x="18.036" y="8.183" class="g">10;</text><text x="4.008" y="10.354" class="g">│</text><text x="10.02" y="10.354" class="f">^</text></svg></svg></g></svg></svg>