<svg xmlns="http://www.w3.org/2000/svg" xmlns:xlink="http://www.w3.org/1999/xlink" width="800" height="151.97"><rect width="800" height="151.97" rx="0" ry="0" class="a"/><svg height="151.97" viewBox="0 0 80 15.197" width="800" xmlns="http://www.w3.org/2000/svg" xmlns:xlink="http://www.w3.org/1999/xlink"><style>.a{fill:#282d35}.e,.f{fill:#b9c0cb;font-weight:700}.f{fill:#e88388}.g{fill:#b9c0cb}</style><g font-size="1.67" font-family="Monaco,Consolas,Menlo,'Bitstream Vera Sans Mono','Powerline Symbols',monospace"><defs><symbol id="a"><path fill="transparent" d="M0 0h80v8H0z"/></symbol><symbol id="b"><path fill="#6f7683" d="M0 0h1.102v2.171H0z"/></symbol></defs><path class="a" d="M0 0h80v15.197H0z"/><svg width="80"><svg><use xlink:href="#a"/><use xlink:href="#b" x="-.004" y="15.172"/><text y="3.841" class="e">program:</text><text x="9.018" y="3.841" class="f">error:</text><text x="16.032" y="3.841" class="e">unknown</text><text x="24.048" y="3.841" class="e">option:</text><text x="32.064" y="3.841" class="g">unrecognized</text><text x="45.09" y="3.841" class="g">command</text><text x="53.106" y="3.841" class="g">line</text><text x="58.116" y="3.841" class="g">option</text><text x="65.13" y="3.841" class="g">‘</text><text x="66.132" y="3.841" class="e">-fmax-err</text><text x="75.15" y="3.841" class="f">a</text><text x="76.152" y="3.841" class="e">rs</text><text x="78.156" y="3.841" class="g">’;</text><text y="6.012" class="g">did</text><text x="4.008" y="6.012" class="g">you</text><text x="8.016" y="6.012" class="g">mean</text><text x="13.026" y="6.012" class="g">‘</text><text x="14.028" y="6.012" class="e">-fmax-err</text><text x="23.046" y="6.012" fill="#a8cc8c" font-weight="700">o</text><text x="24.048" y="6.012" class="e">rs</text><text x="26.052" y="6.012" class="g">’?</text><text y="10.354" fill="#b9bfca" font-weight="700">usage:</text><text x="7.014" y="10.354" class="e">-fmax-errors=⟨n⟩</text><text x="23.046" y="10.354" class="g">,</text><text x="25.05" y="10.354" class="e">-ferror-limit=⟨n⟩</text><text x="4.008" y="12.525" class="g">Limits</text><text x="11.022" y="12.525" class="g">the</text><text x="15.03" y="12.525" class="g">maximum</text><text x="23.046" y="12.525" class="g">number</text><text x="30.06" y="12.525" class="g">of</text><text x="33.066" y="12.525" class="g">error</text><text x="39.078" y="12.525" class="g">messages</text><text x="48.096" y="12.525" class="g">to</text><text x="51.102" y="12.525" class="g">⟨n⟩.</text></svg></svg></g></svg></svg>