<svg xmlns="http://www.w3.org/2000/svg" xmlns:xlink="http://www.w3.org/1999/xlink" width="800" height="65.13"><rect width="800" height="65.13" rx="0" ry="0" class="a"/><svg height="65.13" viewBox="0 0 80 6.513" width="800" xmlns="http://www.w3.org/2000/svg" xmlns:xlink="http://www.w3.org/1999/xlink"><style>.a{fill:#282d35}.e{fill:#e88388}.f{fill:#b9c0cb}</style><g font-size="1.67" font-family="Monaco,Consolas,Menlo,'Bitstream Vera Sans Mono','Powerline Symbols',monospace"><defs><symbol id="a"><path fill="transparent" d="M0 0h80v4H0z"/></symbol><symbol id="b"><path fill="#6f7683" d="M0 0h1.102v2.171H0z"/></symbol></defs><path class="a" d="M0 0h80v6.513H0z"/><svg width="80"><svg><use xlink:href="#a"/><use xlink:href="#b" x="-.004" y="6.488"/><text y="1.67" class="e">error</text><text x="6.012" y="1.67" class="e">CS5001:</text><text x="14.028" y="1.67" class="e">Program</text><text x="22.044" y="1.67" class="e">`Color.exe&apos;</text><text x="34.068" y="1.67" class="e">does</text><text x="39.078" y="1.67" class="e">not</text><text x="43.086" y="1.67" class="e">contain</text><text x="51.102" y="1.67" class="e">a</text><text x="53.106" y="1.67" class="e">static</text><text x="60.12" y="1.67" class="e">`Main&apos;</text><text x="67.134" y="1.67" class="e">method</text><text x="74.148" y="1.67" class="e">suitab</text><text y="3.841" class="e">le</text><text x="3.006" y="3.841" class="e">for</text><text x="7.014" y="3.841" class="e">an</text><text x="10.02" y="3.841" class="e">entry</text><text x="16.032" y="3.841" class="e">point</text><text y="6.012" class="f">Compilation</text><text x="12.024" y="6.012" class="f">failed:</text><text x="20.04" y="6.012" class="f">1</text><text x="22.044" y="6.012" class="f">error(s),</text><text x="32.064" y="6.012" class="f">0</text><text x="34.068" y="6.012" class="f">warnings</text></svg></svg></g></svg></svg>